<svg width="479.375px" height="124.64000549316405px" xmlns="http://www.w3.org/2000/svg" viewBox="10.3125 12.679997253417973 479.375 124.64000549316405" style="background: rgba(0, 0, 0, 0);" preserveAspectRatio="xMidYMid"><defs><filter id="editing-extrude-glow"><feFlood flood-color="#333333" result="flood-1"></feFlood><feMorphology operator="erode" radius="1" in="SourceAlpha" result="erode"></feMorphology><feComposite operator="in" in="flood-1" in2="erode" result="comp1"></feComposite><feConvolveMatrix order="2,2" divisor="1" in="comp1" result="convolve" kernelMatrix="0 0 1 1"></feConvolveMatrix><feOffset dx="-2" dy="0" in="convolve" result="extrude"></feOffset><feComposite operator="in" in="flood-1" in2="extrude" result="comp-extrude"></feComposite><feFlood flood-color="#000000" result="flood-2"></feFlood><feComposite operator="in" in="flood-2" in2="SourceAlpha" result="comp2"></feComposite><feMorphology operator="dilate" radius="1" in="comp2" result="dilate"></feMorphology><feOffset dx="-3" dy="0" in="dilate" result="offset"></feOffset><feGaussianBlur in="offset" stdDeviation="5.8" result="blur"></feGaussianBlur><feComponentTransfer in="blur" result="shadow"><feFuncA type="linear" slope="0.8" intercept="-0.2"></feFuncA></feComponentTransfer><feMerge><feMergeNode in="shadow"></feMergeNode><feMergeNode in="comp-extrude"></feMergeNode><feMergeNode in="SourceGraphic"></feMergeNode></feMerge></filter></defs><g filter="url(#editing-extrude-glow)"><g transform="translate(80.78504025936127, 99.45000076293945)"><path d="M3.84-5.89L3.26-6.59L3.26-6.59Q1.60-8.64 1.60-10.27L1.60-10.27L1.60-10.27Q1.60-11.90 4.35-14.59L4.35-14.59L4.35-14.59Q5.95-16.13 7.74-16.13L7.74-16.13L7.74-16.13Q9.54-16.13 12.74-12.93L12.74-12.93L12.74-12.93Q13.63-11.84 15.30-10.85L15.30-10.85L15.30-10.85Q16.96-9.86 18.37-9.86L18.37-9.86L18.37-9.86Q24.32-9.86 24.32-14.72L24.32-14.72L24.32-14.72Q24.32-16.19 22.69-17.18L22.69-17.18L22.69-17.18Q21.06-18.18 18.62-18.62L18.62-18.62L18.62-18.62Q16.19-19.07 13.38-20.06L13.38-20.06L13.38-20.06Q10.56-21.06 8.13-22.40L8.13-22.40L8.13-22.40Q5.70-23.74 4.06-26.66L4.06-26.66L4.06-26.66Q2.43-29.57 2.43-33.66L2.43-33.66L2.43-33.66Q2.43-39.30 6.62-43.49L6.62-43.49L6.62-43.49Q10.82-47.68 18.05-47.68L18.05-47.68L18.05-47.68Q21.89-47.68 25.06-46.69L25.06-46.69L25.06-46.69Q28.22-45.70 29.44-44.67L29.44-44.67L31.04-43.46L31.04-43.46Q33.02-41.60 33.02-40.32L33.02-40.32L33.02-40.32Q33.02-39.04 31.49-36.80L31.49-36.80L31.49-36.80Q29.31-33.60 27.01-33.60L27.01-33.60L27.01-33.60Q25.66-33.60 23.68-34.88L23.68-34.88L23.68-34.88Q23.49-35.01 22.94-35.52L22.94-35.52L22.94-35.52Q22.40-36.03 21.95-36.35L21.95-36.35L21.95-36.35Q20.61-37.18 18.53-37.18L18.53-37.18L18.53-37.18Q16.45-37.18 15.07-36.19L15.07-36.19L15.07-36.19Q13.70-35.20 13.70-33.44L13.70-33.44L13.70-33.44Q13.70-31.68 15.33-30.59L15.33-30.59L15.33-30.59Q16.96-29.50 19.39-29.12L19.39-29.12L19.39-29.12Q21.82-28.74 24.70-27.94L24.70-27.94L24.70-27.94Q27.58-27.14 30.02-25.98L30.02-25.98L30.02-25.98Q32.45-24.83 34.08-21.98L34.08-21.98L34.08-21.98Q35.71-19.14 35.71-14.98L35.71-14.98L35.71-14.98Q35.71-10.82 34.05-7.65L34.05-7.65L34.05-7.65Q32.38-4.48 29.70-2.75L29.70-2.75L29.70-2.75Q24.51 0.64 18.62 0.64L18.62 0.64L18.62 0.64Q15.62 0.64 12.93-0.10L12.93-0.10L12.93-0.10Q10.24-0.83 8.58-1.92L8.58-1.92L8.58-1.92Q5.18-3.97 3.84-5.89L3.84-5.89ZM68.86-45.18L68.86-45.18L68.86-45.18Q69.38-46.14 70.59-46.53L70.59-46.53L70.59-46.53Q71.81-46.91 73.66-46.91L73.66-46.91L73.66-46.91Q75.52-46.91 76.61-46.59L76.61-46.59L76.61-46.59Q77.70-46.27 78.27-45.82L78.27-45.82L78.27-45.82Q78.85-45.38 79.17-44.54L79.17-44.54L79.17-44.54Q79.49-43.46 79.49-41.22L79.49-41.22L79.49-5.70L79.49-5.70Q79.49-4.22 79.39-3.49L79.39-3.49L79.39-3.49Q79.30-2.75 78.78-1.79L78.78-1.79L78.78-1.79Q77.89-0.06 73.79-0.06L73.79-0.06L73.79-0.06Q69.31-0.06 68.54-2.43L68.54-2.43L68.54-2.43Q68.16-3.52 68.16-5.76L68.16-5.76L68.16-18.75L51.20-18.75L51.20-5.70L51.20-5.70Q51.20-4.22 51.10-3.49L51.10-3.49L51.10-3.49Q51.01-2.75 50.50-1.79L50.50-1.79L50.50-1.79Q49.60-0.06 45.50-0.06L45.50-0.06L45.50-0.06Q41.02-0.06 40.26-2.43L40.26-2.43L40.26-2.43Q39.87-3.52 39.87-5.76L39.87-5.76L39.87-41.28L39.87-41.28Q39.87-42.75 39.97-43.49L39.97-43.49L39.97-43.49Q40.06-44.22 40.58-45.18L40.58-45.18L40.58-45.18Q41.47-46.91 45.57-46.91L45.57-46.91L45.57-46.91Q50.05-46.91 50.88-44.54L50.88-44.54L50.88-44.54Q51.20-43.46 51.20-41.22L51.20-41.22L51.20-28.16L68.16-28.16L68.16-41.28L68.16-41.28Q68.16-42.75 68.26-43.49L68.26-43.49L68.26-43.49Q68.35-44.22 68.86-45.18ZM106.62-47.49L106.62-47.49L106.62-47.49Q116.10-47.49 123.07-40.64L123.07-40.64L123.07-40.64Q130.05-33.79 130.05-23.65L130.05-23.65L130.05-23.65Q130.05-13.50 123.39-6.37L123.39-6.37L123.39-6.37Q116.74 0.77 107.01 0.77L107.01 0.77L107.01 0.77Q97.28 0.77 90.46-6.27L90.46-6.27L90.46-6.27Q83.65-13.31 83.65-23.04L83.65-23.04L83.65-23.04Q83.65-28.35 85.57-32.99L85.57-32.99L85.57-32.99Q87.49-37.63 90.69-40.77L90.69-40.77L90.69-40.77Q93.89-43.90 98.05-45.70L98.05-45.70L98.05-45.70Q102.21-47.49 106.62-47.49ZM94.98-23.36L94.98-23.36L94.98-23.36Q94.98-17.66 98.66-14.11L98.66-14.11L98.66-14.11Q102.34-10.56 106.88-10.56L106.88-10.56L106.88-10.56Q111.42-10.56 115.07-14.02L115.07-14.02L115.07-14.02Q118.72-17.47 118.72-23.30L118.72-23.30L118.72-23.30Q118.72-29.12 115.04-32.64L115.04-32.64L115.04-32.64Q111.36-36.16 106.82-36.16L106.82-36.16L106.82-36.16Q102.27-36.16 98.62-32.61L98.62-32.61L98.62-32.61Q94.98-29.06 94.98-23.36ZM190.34-46.66L190.34-46.66L190.34-46.66Q194.62-45.12 194.62-42.56L194.62-42.56L194.62-42.56Q194.62-41.73 193.86-39.42L193.86-39.42L181.57-3.90L181.57-3.90Q181.44-3.46 181.12-2.82L181.12-2.82L181.12-2.82Q180.80-2.18 179.42-1.12L179.42-1.12L179.42-1.12Q178.05-0.06 176.16-0.06L176.16-0.06L176.16-0.06Q174.27-0.06 172.90-1.12L172.90-1.12L172.90-1.12Q171.52-2.18 171.07-3.20L171.07-3.20L163.58-25.28L163.58-25.28Q156.48-4.29 156.35-3.90L156.35-3.90L156.35-3.90Q156.22-3.52 155.78-2.82L155.78-2.82L155.78-2.82Q155.33-2.11 154.75-1.54L154.75-1.54L154.75-1.54Q153.28-0.06 151.23-0.06L151.23-0.06L151.23-0.06Q149.18-0.06 147.87-1.02L147.87-1.02L147.87-1.02Q146.56-1.98 146.11-2.94L146.11-2.94L145.66-3.90L133.31-39.42L133.31-39.42Q132.61-41.54 132.61-42.56L132.61-42.56L132.61-42.56Q132.61-45.12 136.90-46.59L136.90-46.59L136.90-46.59Q138.75-47.23 140.26-47.23L140.26-47.23L140.26-47.23Q141.76-47.23 142.56-46.21L142.56-46.21L142.56-46.21Q143.36-45.18 144-43.07L144-43.07L151.04-21.70L158.02-42.75L158.02-42.75Q158.91-45.44 161.28-46.46L161.28-46.46L161.28-46.46Q162.30-46.91 163.94-46.91L163.94-46.91L163.94-46.91Q165.57-46.91 166.98-45.86L166.98-45.86L166.98-45.86Q168.38-44.80 168.77-43.78L168.77-43.78L176.13-21.57L183.17-43.07L183.17-43.07Q183.68-44.54 184-45.25L184-45.25L184-45.25Q184.32-45.95 185.18-46.62L185.18-46.62L185.18-46.62Q186.05-47.30 187.33-47.30L187.33-47.30L187.33-47.30Q188.61-47.30 190.34-46.66ZM203.97-46.91L229.18-46.91L229.18-46.91Q230.66-46.91 231.39-46.82L231.39-46.82L231.39-46.82Q232.13-46.72 233.06-46.21L233.06-46.21L233.06-46.21Q233.98-45.70 234.37-44.48L234.37-44.48L234.37-44.48Q234.75-43.26 234.75-41.22L234.75-41.22L234.75-41.22Q234.75-39.17 234.37-37.95L234.37-37.95L234.37-37.95Q233.98-36.74 233.02-36.26L233.02-36.26L233.02-36.26Q232.06-35.78 231.33-35.68L231.33-35.68L231.33-35.68Q230.59-35.58 229.06-35.58L229.06-35.58L209.47-35.58L209.47-29.12L222.08-29.12L222.08-29.12Q223.62-29.12 224.35-29.02L224.35-29.02L224.35-29.02Q225.09-28.93 226.05-28.42L226.05-28.42L226.05-28.42Q227.71-27.46 227.71-23.36L227.71-23.36L227.71-23.36Q227.71-18.88 225.28-18.05L225.28-18.05L225.28-18.05Q224.26-17.73 222.02-17.73L222.02-17.73L209.47-17.73L209.47-5.63L209.47-5.63Q209.47-4.10 209.38-3.39L209.38-3.39L209.38-3.39Q209.28-2.69 208.77-1.73L208.77-1.73L208.77-1.73Q207.87 0 203.78 0L203.78 0L203.78 0Q199.30 0 198.53-2.43L198.53-2.43L198.53-2.43Q198.14-3.46 198.14-5.70L198.14-5.70L198.14-41.28L198.14-41.28Q198.14-44.54 199.36-45.73L199.36-45.73L199.36-45.73Q200.58-46.91 203.97-46.91L203.97-46.91ZM250.24-41.22L250.24-9.47L267.65-9.47L267.65-9.47Q269.76-9.47 270.72-8.99L270.72-8.99L270.72-8.99Q271.68-8.51 272-7.49L272-7.49L272-7.49Q272.32-6.46 272.32-4.77L272.32-4.77L272.32-4.77Q272.32-3.07 272-2.05L272-2.05L272-2.05Q271.68-1.02 270.91-0.64L270.91-0.64L270.91-0.64Q269.70 0 267.58 0L267.58 0L244.54 0L244.54 0Q240.06 0 239.30-2.43L239.30-2.43L239.30-2.43Q238.91-3.46 238.91-5.70L238.91-5.70L238.91-41.28L238.91-41.28Q238.91-42.75 239.01-43.49L239.01-43.49L239.01-43.49Q239.10-44.22 239.62-45.18L239.62-45.18L239.62-45.18Q240.51-46.91 244.61-46.91L244.61-46.91L244.61-46.91Q249.09-46.91 249.92-44.54L249.92-44.54L249.92-44.54Q250.24-43.46 250.24-41.22L250.24-41.22ZM276.48-5.70L276.48-41.28L276.48-41.28Q276.48-42.75 276.58-43.49L276.58-43.49L276.58-43.49Q276.67-44.22 277.18-45.18L277.18-45.18L277.18-45.18Q278.08-46.91 282.18-46.91L282.18-46.91L282.18-46.91Q286.66-46.91 287.49-44.54L287.49-44.54L287.49-44.54Q287.81-43.46 287.81-41.22L287.81-41.22L287.81-5.63L287.81-5.63Q287.81-4.10 287.71-3.39L287.71-3.39L287.71-3.39Q287.62-2.69 287.10-1.73L287.10-1.73L287.10-1.73Q286.21 0 282.11 0L282.11 0L282.11 0Q277.63 0 276.86-2.43L276.86-2.43L276.86-2.43Q276.48-3.46 276.48-5.70L276.48-5.70ZM334.66-37.89L321.79-23.74L334.66-9.60L334.66-9.60Q336.83-7.17 336.83-5.50L336.83-5.50L336.83-5.50Q336.83-3.84 334.37-1.60L334.37-1.60L334.37-1.60Q331.90 0.64 330.21 0.64L330.21 0.64L330.21 0.64Q328.51 0.64 326.27-1.92L326.27-1.92L314.11-15.87L301.95-1.92L301.95-1.92Q299.65 0.64 298.02 0.64L298.02 0.64L298.02 0.64Q296.38 0.64 293.86-1.63L293.86-1.63L293.86-1.63Q291.33-3.90 291.33-5.50L291.33-5.50L291.33-5.50Q291.33-7.10 293.57-9.60L293.57-9.60L306.43-23.74L293.57-37.89L293.57-37.89Q291.33-40.26 291.33-41.92L291.33-41.92L291.33-41.92Q291.33-43.58 293.82-45.86L293.82-45.86L293.82-45.86Q296.32-48.13 298.02-48.13L298.02-48.13L298.02-48.13Q299.71-48.13 301.95-45.57L301.95-45.57L314.11-31.62L326.27-45.57L326.27-45.57Q328.58-48.13 330.21-48.13L330.21-48.13L330.21-48.13Q331.84-48.13 334.34-45.89L334.34-45.89L334.34-45.89Q336.83-43.65 336.83-41.92L336.83-41.92L336.83-41.92Q336.83-40.19 334.66-37.89L334.66-37.89Z" fill="#f93154"></path></g></g><style>text {
  font-size: 64px;
  font-family: Arial Black;
  dominant-baseline: central;
  text-anchor: middle;
}</style></svg>